<?xml version="1.0" standalone="no"?>
<!DOCTYPE svg PUBLIC "-//W3C//DTD SVG 20010904//EN"
 "http://www.w3.org/TR/2001/REC-SVG-20010904/DTD/svg10.dtd">
<svg version="1.0" xmlns="http://www.w3.org/2000/svg"
 width="102.000000pt" height="102.000000pt" viewBox="0 0 102.000000 102.000000"
 preserveAspectRatio="xMidYMid meet">
<metadata>
Created by potrace 1.11, written by Peter Selinger 2001-2013
</metadata>
<g transform="translate(0.000000,102.000000) scale(0.100000,-0.100000)"
fill="#000000" stroke="none">
<path d="M305 999 c-82 -10 -160 -18 -172 -18 l-23 -1 0 -370 0 -370 38 -23
c20 -13 112 -67 203 -121 l166 -97 199 119 199 119 3 372 2 371 -22 1 c-13 0
-31 2 -41 4 -9 2 -51 6 -93 10 -41 3 -85 8 -97 11 -66 12 -228 9 -362 -7z
m360 -53 c22 -3 74 -8 115 -12 41 -3 76 -7 78 -9 1 -1 1 -61 0 -132 l-3 -131
-169 99 c-92 55 -171 99 -175 99 -3 -1 -80 -45 -171 -99 l-165 -99 -3 131 c-1
71 -1 131 0 132 2 2 39 6 83 10 44 4 107 10 140 15 57 8 182 6 270 -4z m-49
-189 c49 -29 119 -70 156 -91 37 -21 70 -41 73 -46 4 -6 -107 -80 -121 -80 -2
0 -49 27 -105 60 -55 33 -103 60 -105 60 -2 0 -4 -9 -4 -19 0 -14 26 -36 91
-74 54 -33 85 -57 76 -60 -8 -3 -47 14 -88 38 -41 24 -76 39 -77 34 -8 -20 8
-38 57 -66 49 -27 64 -43 39 -43 -6 0 -31 11 -55 25 l-43 26 0 -24 c0 -16 9
-28 27 -36 l27 -13 -24 -18 c-25 -19 -26 -19 -72 8 -238 138 -287 168 -285
175 3 12 310 195 328 196 9 1 56 -23 105 -52z m244 -336 l0 -149 -171 -101
c-94 -56 -172 -101 -174 -101 -2 0 -80 45 -174 101 l-171 101 0 144 c0 134 1
143 18 136 49 -19 322 -189 322 -199 0 -18 -5 -17 -50 12 -22 14 -42 25 -45
25 -2 0 -29 16 -60 35 -75 48 -85 51 -85 27 0 -14 31 -38 120 -91 70 -42 120
-78 120 -87 0 -13 -5 -12 -32 4 -100 62 -190 112 -199 112 -6 0 -9 -8 -7 -17
2 -10 55 -49 123 -90 l119 -72 46 27 c26 15 81 47 123 72 l77 45 0 77 0 78 48
30 c26 16 48 30 50 30 1 0 2 -67 2 -149z"/>
</g>
</svg>
